<?xml version="1.0" encoding="UTF-8"?>
<svg id="Livello_1" xmlns="http://www.w3.org/2000/svg" version="1.1" viewBox="0 0 192.24 175.92">
  <!-- Generator: Adobe Illustrator 29.6.1, SVG Export Plug-In . SVG Version: 2.1.1 Build 9)  -->
  <defs>
    <style>
      .st0 {
        fill: #b496e1;
      }

      .st1 {
        fill: #0087a9;
      }

      .st2 {
        fill: #75c5d8;
      }

      .st3 {
        fill: #2c9f88;
      }

      .st4 {
        fill: #e47ffe;
      }

      .st5 {
        fill: #86ddcc;
      }

      .st6 {
        fill: #5398ab;
      }

      .st7 {
        fill: #007f7f;
      }

      .st8 {
        fill: #aedce8;
      }

      .st9 {
        fill: #c5aee8;
      }

      .st10 {
        fill: #ac8bde;
      }

      .st11 {
        fill: #8c5fd2;
      }

      .st12 {
        fill: #37aac7;
      }

      .st13 {
        fill: #5cbad2;
      }
    </style>
  </defs>
  <path class="st12" d="M109.78,0c.45.2.98.2,1.44,0h3.6c.45.2.98.2,1.44,0h.96c2.77.62,5.59.92,8.35,1.6,5.57,1.38,11.13,3.54,15.62,7.03v.24l-.24.59c-5.05-1.38-10.16-2.14-15.34-2.27-10.68-.16-19.3,7.47-25.45,15.64l-.92.42-.06.88c-2.51,3.09-4.64,6.39-6.41,9.91.18.74-.21.61-.72.24-.16.75-.35,1.5-.7,2.19-4.45,8.68-8.81,17.33-12.49,26.37l-.72.92-.46.23c-2.66-3.2-5.55-6.18-8.67-8.93.45-1.22.92-2.44,1.41-3.67.17-2.2-9.11-6.31-9.86-6.03-.82.98-1.43,2.16-1.81,3.55l-.6.38c-5.74-2.39-11.5-4.32-17.75-4.62l-.14-.55c2.03-3.74,4.7-7.39,7.34-10.76C63.57,12.9,81.4,2.06,107.72.22l.38-.22h1.68Z"/>
  <path class="st11" d="M192.24,112.89v.72c-.2.45-.2.98,0,1.44v3.36c-.2.45-.2.98,0,1.44v.72c-.55,1.81-.94,3.68-1.44,5.51-.91.47-1.84.93-2.83,1.21-7.8,2.26-15.58,4.53-23.37,6.85-.51.15-1.02.25-1.13-.4l-.46-1.46c.08-8.01-1.79-15.81-4.14-23.4l.05-.79.47-.69c6.89-2.89,13.98-6.72,18.64-12.48-.53-7.6-1.75-15.26-3.66-22.96l.13-.78c1,.9,1.77,2.24,2.5,3.38,5.68,8.83,10.32,18.59,13.26,28.69l1.99,9.64Z"/>
  <path class="st13" d="M111.22,0c-.24.39-1.21.39-1.44,0h1.44Z"/>
  <path class="st2" d="M116.25,0c-.24.39-1.21.39-1.44,0h1.44Z"/>
  <path class="st10" d="M192.24,115.04c-.39-.24-.39-1.21,0-1.44v1.44Z"/>
  <path class="st0" d="M192.24,119.84c-.39-.24-.39-1.21,0-1.44v1.44Z"/>
  <path class="st5" d="M78.14,63.75l.7.08,3.03,3.74c.99,1.25,5.37,5.74,6.73,3.7,1.2-6.02,12.49-1.22,13.39,2.28,1,3.87-4.33,15.74-7.48,18.3-2.87,2.34-9.06.09-11.6-2.15-2.25-1.98-1.82-3.27-.22-5.39-5.38-4.59-15.45-7.92-20.72-1.39l-4.5,5.65c-1.7,1.95-3.99,2.14-6.88.56-.27,0-.53,0-.79-.03s-.51-.08-.72-.18c-3.3-1.61-6.61-3.29-9.87-4.98-.21-.11-.4-.28-.58-.45s-.35-.38-.51-.59c.48-.11-.26-.63-.37-.71-2.8-2.22-3.44-3.34-2.07-6.88,1.58-4.1,8.11-11.23,3.79-15.57-3.38-3.4-10.59-2.03-14.78-1.17-6.47,1.34-15.05,4.85-21.24,5.36-2.92.24-4.05-.34-2.53-3.25,2.88-5.49,13.98-9.89,19.64-12,6.21-2.32,13.06-4.57,19.72-4.61.11,0,.49.23.83.24,6.2.18,11.42,2.08,17.04,4.52.52-.05,1.03-3.79,2.44-4,1.3-.2,8.33,3.53,9.39,4.66,1.99,2.12.32,3.29-.59,5.37,3.28,2.18,5.4,5.24,7.92,8.15.26.3.67.51.84.71Z"/>
  <path class="st3" d="M38.11,82.93c4.06,1.86,8.38,4.23,12.46,6.23,4.43,1.02,4.61,2.23,4.2,6.48-.1,1.04-.28,2.08-.48,3.1-1.89,9.84-4.58,20.2-7.37,29.98-.07.26-.22.49-.38.74s-.34.47-.53.68v1.1c-2.66,8.43-5.38,16.81-8.15,25.13l-.47.37c-8.7-9.54-17.6-22.69-23.38-34.27-2.73-5.47-2.85-6.45-.84-12.35,2.44-7.15,12.89-25.06,19.74-28.2,1.81-.83,3.46.2,5.2,1Z"/>
  <path class="st9" d="M190.8,126.07c-3.43,12.66-9.47,26.66-16.02,38.03-1.01,1.76-2.76,5.07-4.43,6.12-7.4,4.65-32.46,2.84-39.36-2.44-2.16-1.66-2.69-5.75-3.72-8.15l-.48-.63c.01-2.23-.39-4.44-1.19-6.52l.23-.75c-.23-1.46-.39-2.63.44-3.97,1.04-1.69,5.11-3.4,7.01-4.15,8.84-3.47,18.34-6.67,27.59-9.54.41-.13.84-.18,1.28-.24s.88-.07,1.32-.08c.05-.01.54.08,1-.06,8.71-2.72,17.46-5.41,26.33-7.61Z"/>
  <path class="st7" d="M105.47,142.37l-.32.64c-9.39,4.89-22.83,11.28-32.47,4.04,4,11.06,10.59,20.91,22.53,24.95l.67.8c.51.25.21.36-.24.48-2.83-.15-5.86.06-8.75,0-17.87-.33-36.97-2.8-49.5-16.54-.06-.47.1-.88.23-1.32,2.51-8.48,5.95-16.87,8.4-25.28l1.45.29c9.93,5.56,21.19,8.19,32.37,9.87,8.28,1.25,16.79,2.26,25,1.55l.63.51Z"/>
  <path class="st4" d="M125.84,151.71c1.1,2.79,1.48,4.88,1.44,7.91-.18,13.49-12.56,17.76-24.22,15.47-2.09-.41-4.54-1.59-6.46-1.81-.45-.08-.69-.24-.72-.48-8.87-3.69-14.56-7.42-19.3-16.05-.64-1.16-4.59-9.33-4.43-9.94.04-.16.37-.42.59-.37.16.04,2.03,1.57,2.67,1.88,7.09,3.44,16.98.19,23.74-2.8,2.03-.9,4.31-2.45,6.31-3.16,1.05-1.32,3.72-1.45,5.42-1.48,4.75-.09,9.25,1.95,12.34,5.55,1.25,1.46,2.66,3.3,2.61,5.28Z"/>
  <path class="st6" d="M96.6,173.28c-.31-.04-.64.02-.96,0l.24-.48c.28.11.54.22.72.48Z"/>
  <path class="st8" d="M174.5,71.18c1.49,5.82,2.82,12.41,3.56,18.37.14,1.08.66,4.63.46,5.42-.34,1.3-4.97,5.05-6.24,5.98-3.61,2.63-9.16,5.63-13.36,7.14.24.76-2.44,1.36-2.81,1.06-.46-.37-.34-.84-.08-1.3.91-1.59,1.71-3.19,2.41-4.82l-5.89-.21c-.97-.1-.88-.9-.49-1.61l2.46-5.16c-.17-.2-.26-.42-.27-.68-.02.19-.08.47-.22.48-.75.06-6.43.12-6.74,0-.18-.07-.27-.29-.35-.48l-.42-.29,2.17-7.67-8.86-.67c-.33-.15-.47-.44-.49-.79,1.01-2.78,1.91-5.54,2.72-8.28l-8.97.42c-.48.01-.71-.33-.74-.77l1.76-9.48-10.64-.28c-.48-.02-.68-.38-.68-.83l2.81-10.17-10.97.44c-.49,0-.7-.36-.7-.81l2.59-9.05c-3.76.88-7.53,1.61-11.31,2.2-4.49-4.81-8.92-9.67-13.31-14.57l.14-.52.72-.24.94-.21c12.59,3.64,24.39,4.23,34.6-5,5.59-5.05,11.11-11.8,12.34-19.39l.53-.57v-.24c8.1,6.29,14.3,16.83,19.06,25.88,6.08,11.55,11.02,24,14.26,36.68Z"/>
  <path class="st1" d="M141.18,8.87c-.51,8.56-10.12,19.25-17.04,23.83-8.97,5.93-21.64,4.39-31.38,1.34-.45-.39-.57-.04-.28-.63,1.63-3.36,4.5-7.14,6.75-10.15l.75-.07c9.66,5.24,23.08-6.14,25.1-15.51l.52-.48c0-.16-.01-.32,0-.48,4.97-.24,9.75,1.07,14.54,2.14.35.08.69.27,1.04.02Z"/>
</svg>