<?xml version="1.0" encoding="UTF-8" standalone="no"?>
<!DOCTYPE svg PUBLIC "-//W3C//DTD SVG 1.1//EN" "http://www.w3.org/Graphics/SVG/1.1/DTD/svg11.dtd">
<svg width="100%" height="100%" viewBox="0 0 594 1262" version="1.1" xmlns="http://www.w3.org/2000/svg" xmlns:xlink="http://www.w3.org/1999/xlink" xml:space="preserve" xmlns:serif="http://www.serif.com/" style="fill-rule:evenodd;clip-rule:evenodd;stroke-linejoin:round;stroke-miterlimit:2;">
    <g transform="matrix(0.333223,0,0,1.001106,396.025815,-1)">
        <path d="M593.94,1260.95L0,1261.44L0,0L593.94,0L593.94,1260.95Z" style="fill:rgb(140,95,210);fill-rule:nonzero;"/>
    </g>
    <g transform="matrix(1,0,0,1,0,-1)">
        <path d="M250.37,476.7C275.58,495.62 299.23,530.65 299.32,567.72C299.43,619.95 252.64,627.33 246.68,681.98C240.5,738.61 288.11,754.91 283.62,817.54C280.37,862.85 251.36,911.42 221.75,913.4C186.98,915.72 174.07,852.28 140.48,854.33C108.14,856.31 106.66,884.68 106.1,942.21C105.59,995.26 127.63,974.73 150.83,1058.5C166.42,1114.8 143.74,1164.92 116.84,1206.44C90.22,1247.52 41.95,1249.43 32.75,1251.72C28.98,1252.66 -69.23,1240.99 -69.23,1240.99C-69.23,1240.99 -173.97,550.33 -22.18,406.85C-0.77,386.61 29.66,389.9 58.6,395.39C93.93,402.1 105.38,406.44 129.38,437.97C154.56,471.06 201,439.66 250.36,476.7L250.37,476.7Z" style="fill:rgb(228,127,254);fill-rule:nonzero;"/>
    </g>
    <g transform="matrix(1,0,0,1,0,-1)">
        <path d="M218.03,494.63C239.67,511.38 259.96,542.4 260.03,575.22C260.13,621.46 219.97,628 214.86,676.38C209.56,726.52 250.42,740.95 246.56,796.4C243.77,836.51 218.88,879.52 193.46,881.27C163.62,883.33 152.54,827.16 123.72,828.98C95.97,830.73 67.93,885.21 67.45,936.14C67.01,983.11 90.34,991.43 110.25,1065.59C123.63,1115.44 136.51,1163.43 113.42,1200.18C90.58,1236.55 45.1,1241.72 37.21,1243.75C33.97,1244.58 -15.68,1243.75 -15.68,1243.75C-15.68,1243.75 -163.82,576.16 -15.86,432.78C2.02,415.46 42.77,413.16 65.57,419.99C77.67,423.61 93.62,432.41 114.22,460.33C135.83,489.62 175.68,461.83 218.04,494.62L218.03,494.63Z" style="fill-opacity:0.07;fill-rule:nonzero;"/>
    </g>
    <g transform="matrix(1,0,0,1,0,-1)">
        <path d="M332.759,1127.919C307.549,1108.999 283.899,1073.969 283.809,1036.899C283.699,984.669 330.489,977.289 336.449,922.639C342.629,866.009 295.019,849.709 299.509,787.079C302.759,741.769 331.769,693.199 361.379,691.219C396.149,688.899 411.588,747.642 442.649,750.289C474.989,748.309 484.543,397.208 485.24,324.73C485.75,271.68 463.71,292.21 440.51,208.44C424.92,152.14 451.44,104.27 474.5,60.5C496.33,19.08 525.44,9.32 559.62,11.07C605.99,13.45 632.31,28.64 650.86,46.33C802.05,190.43 779.27,733.01 613.5,860.09C590.12,878.01 594,1157.232 594,1157.232C594,1157.232 477.729,1198.179 453.719,1166.649C423.829,1137.554 382.099,1164.959 332.739,1127.919L332.759,1127.919Z" style="fill:rgb(228,127,254);fill-rule:nonzero;"/>
    </g>
    <g transform="matrix(1,0,0,1,0,-1)">
        <path d="M210.2,498.38C230.38,514.51 249.31,544.37 249.38,575.96C249.47,620.48 212.02,626.77 207.25,673.34C202.31,721.6 240.41,735.5 236.82,788.88C234.22,827.5 211,868.9 187.3,870.58C159.47,872.56 149.14,818.49 122.25,820.24C96.37,821.92 70.22,874.37 69.77,923.4C69.36,968.62 91.12,976.62 109.68,1048.02C122.16,1096 134.17,1142.2 112.64,1177.59C91.33,1212.6 48.92,1217.58 41.56,1219.53C38.54,1220.33 -7.77,1219.53 -7.77,1219.53C-7.77,1219.53 -145.93,576.87 -7.94,438.85C8.73,422.17 46.74,419.96 68.01,426.54C79.29,430.03 94.17,438.5 113.38,465.38C133.54,493.58 170.7,466.82 210.21,498.39L210.2,498.38Z" style="fill:rgb(197,174,232);fill-rule:nonzero;"/>
    </g>
    <g transform="matrix(1,0,0,1,0,-1)">
        <path d="M355.219,1121.249C333.579,1104.499 313.289,1073.479 313.219,1040.659C313.119,994.419 353.279,987.879 358.389,939.499C363.689,889.359 322.829,874.929 326.689,819.479C329.479,779.369 370.803,725.712 396.223,723.962C411.398,722.914 425.931,757.269 425.931,757.269C425.931,757.269 435.364,787.794 449.529,786.899C477.279,785.149 513.53,392.99 514.01,342.06C514.45,295.09 491.12,286.77 471.21,212.61C457.83,162.76 444.95,114.77 468.04,78.02C490.88,41.65 536.36,36.48 544.25,34.45C547.49,33.62 597.14,34.45 597.14,34.45C597.14,34.45 745.28,702.04 597.32,845.42C579.44,862.74 616.8,1150.941 594,1144.111C581.9,1140.491 479.629,1183.469 459.029,1155.549C437.419,1126.259 399.509,1126.563 355.209,1121.259L355.219,1121.249Z" style="fill-opacity:0.07;fill-rule:nonzero;"/>
    </g>
    <g transform="matrix(1,0,0,1,0,-1)">
        <path d="M375.389,1109.579C355.209,1093.449 336.279,1063.589 336.209,1031.999C336.119,987.479 373.569,981.189 378.339,934.619C383.279,886.359 332.609,867.739 336.209,814.359C338.809,775.739 372.516,736.635 396.226,734.955C424.056,732.975 426.739,791.959 453.619,790.209C479.499,788.529 523.6,395.92 524.04,346.89C524.45,301.67 502.69,293.67 484.13,222.27C471.65,174.29 459.64,128.09 481.17,92.7C502.48,57.69 533.25,43.85 552.03,42.16C570.17,40.53 601.58,50.76 601.58,50.76C601.58,50.76 739.74,693.42 601.75,831.44C585.08,848.12 594,1126.142 594,1126.142C593.16,1126.142 491.439,1169.469 472.229,1142.589C452.069,1114.389 422.267,1138.194 375.399,1109.579L375.389,1109.579Z" style="fill:rgb(197,174,232);fill-rule:nonzero;"/>
    </g>
    <g id="BlueSlice" transform="matrix(0.242385,0,0,0.240311,98.390218,630.417349)">
        <g transform="matrix(1,0,0,1,-410.5,-2627.5)">
            <g>
                <clipPath id="_clip1">
                    <rect x="0" y="0" width="821" height="5255"/>
                </clipPath>
                <g clip-path="url(#_clip1)">
                    <path d="M2474.75,5253.958L0,5256L0,0L2474.75,0L2474.75,5253.958Z" style="fill:rgb(0,135,169);fill-rule:nonzero;"/>
                    <path d="M1077.417,555.917C1182.459,634.75 1281,780.709 1281.375,935.167C1281.833,1152.792 1086.875,1183.542 1062.042,1411.25C1036.292,1647.208 1234.667,1715.125 1215.959,1976.083C1202.417,2164.875 1081.542,2367.25 958.167,2375.5C813.292,2385.167 759.5,2120.833 619.542,2129.375C484.792,2137.625 478.625,2255.833 476.292,2495.542C474.167,2716.584 566,2631.042 662.667,2980.084C727.625,3214.667 633.125,3423.501 521.042,3596.501C410.125,3767.668 209,3775.626 170.667,3785.168C154.959,3789.085 -254.25,3740.46 -254.25,3740.46C-254.25,3740.46 -690.667,862.71 -58.208,264.877C31,180.544 157.792,194.252 278.375,217.127C425.583,245.085 473.292,263.169 573.292,394.544C678.209,532.419 871.709,401.586 1077.375,555.919L1077.417,555.919L1077.417,555.917Z" style="fill:rgb(55,170,199);fill-rule:nonzero;"/>
                    <path d="M942.667,630.625C1032.834,700.417 1117.375,829.667 1117.667,966.417C1118.084,1159.084 950.75,1186.334 929.459,1387.917C907.376,1596.834 1077.626,1656.959 1061.542,1888C1049.917,2055.125 946.209,2234.333 840.292,2241.625C715.959,2250.208 669.792,2016.167 549.709,2023.75C434.084,2031.042 317.251,2258.042 315.251,2470.25C313.418,2665.958 410.626,2700.625 493.584,3009.625C549.334,3217.333 603.001,3417.292 506.792,3570.417C411.625,3721.959 222.125,3743.5 189.25,3751.959C175.75,3755.417 -31.125,3751.959 -31.125,3751.959C-31.125,3751.959 -648.375,970.334 -31.875,372.917C42.625,300.75 212.417,291.167 307.417,319.625C357.834,334.708 424.292,371.375 510.125,487.708C603.686,608.041 777.721,488.367 942.708,630.583L942.666,630.625L942.667,630.625Z" style="fill-opacity:0.07;fill-rule:nonzero;"/>
                    <path d="M910.042,646.292C994.125,713.5 1073,837.917 1073.292,969.542C1073.667,1155.042 917.625,1181.25 897.75,1375.292C877.167,1576.375 1035.917,1634.292 1020.958,1856.709C1010.125,2017.626 913.375,2190.126 814.625,2197.126C698.667,2205.376 655.625,1980.084 543.583,1987.376C435.75,1994.376 326.791,2212.918 324.916,2417.209C323.208,2605.626 413.874,2638.959 491.208,2936.459C543.208,3136.376 593.25,3328.876 503.541,3476.334C414.749,3622.209 238.041,3642.959 207.374,3651.084C194.791,3654.417 1.832,3651.084 1.832,3651.084C1.832,3651.084 -573.835,973.334 1.124,398.251C70.582,328.751 228.957,319.543 317.582,346.959C364.582,361.501 426.582,396.792 506.624,508.792C590.624,626.292 745.457,514.792 910.082,646.334L910.04,646.292L910.042,646.292Z" style="fill:rgb(174,220,232);fill-rule:nonzero;"/>
                </g>
            </g>
        </g>
    </g>
    <g id="GreenSlice" transform="matrix(-0.241719,0,0,0.240593,297,629.841893)">
        <g transform="matrix(1,0,0,1,-410.5,-2627.5)">
            <g>
                <clipPath id="_clip2">
                    <rect x="0" y="0" width="821" height="5255"/>
                </clipPath>
                <g clip-path="url(#_clip2)">
                    <path d="M1649.75,2.042L-825,0L-825,5256L1649.75,5256L1649.75,2.042Z" style="fill:rgb(0,127,127);fill-rule:nonzero;"/>
                    <path d="M252.417,4700.042C357.459,4621.209 456,4475.25 456.375,4320.792C456.833,4103.167 261.875,4072.417 237.042,3844.709C211.292,3608.751 409.667,3540.834 390.959,3279.876C377.417,3091.084 256.542,2888.709 133.167,2880.459C-11.708,2870.792 -65.5,3135.126 -205.458,3126.584C-340.208,3118.334 -346.375,3000.126 -348.708,2760.417C-350.833,2539.375 -259,2624.917 -162.333,2275.875C-97.375,2041.292 -191.875,1832.458 -303.958,1659.458C-414.875,1488.291 -616,1480.333 -654.333,1470.791C-670.041,1466.874 -1079.25,1515.499 -1079.25,1515.499C-1079.25,1515.499 -1515.667,4393.249 -883.208,4991.082C-794,5075.415 -667.208,5061.707 -546.625,5038.832C-399.417,5010.874 -351.708,4992.79 -251.708,4861.415C-146.791,4723.54 46.709,4854.373 252.375,4700.04L252.417,4700.04L252.417,4700.042Z" style="fill:rgb(44,159,136);fill-rule:nonzero;"/>
                    <path d="M117.667,4625.375C207.834,4555.583 292.375,4426.333 292.667,4289.583C293.084,4096.916 125.75,4069.666 104.459,3868.083C82.376,3659.166 252.626,3599.041 236.542,3368C224.917,3200.875 121.209,3021.667 15.292,3014.375C-109.041,3005.792 -155.208,3239.833 -275.291,3232.25C-390.916,3224.958 -507.749,2997.958 -509.749,2785.75C-511.582,2590.042 -414.374,2555.375 -331.416,2246.375C-275.666,2038.667 -221.999,1838.708 -318.208,1685.583C-413.375,1534.041 -602.875,1512.5 -635.75,1504.041C-649.25,1500.583 -856.125,1504.041 -856.125,1504.041C-856.125,1504.041 -1473.375,4285.666 -856.875,4883.083C-782.375,4955.25 -612.583,4964.833 -517.583,4936.375C-467.166,4921.292 -400.708,4884.625 -314.875,4768.292C-224.833,4646.25 -58.792,4762.042 117.708,4625.417L117.666,4625.375L117.667,4625.375Z" style="fill-opacity:0.07;fill-rule:nonzero;"/>
                    <path d="M550.917,573.314C445.875,652.147 347.334,798.106 346.959,952.564C346.501,1170.189 541.459,1200.939 566.292,1428.647C592.042,1664.605 393.667,1732.522 412.375,1993.48C425.917,2182.272 546.792,2384.647 670.167,2392.897C815.042,2402.564 868.834,2138.23 1008.792,2146.772C1143.542,2155.022 1149.709,2273.23 1152.042,2512.939C1154.167,2733.981 1062.334,2648.439 965.667,2997.481C900.709,3232.064 1011.209,3431.523 1107.292,3613.898C1198.25,3786.481 1364.333,3627.376 1506.75,3620.084C1699.958,3610.167 1764.834,3746.648 1842.126,3672.939C2472.084,3072.522 2377.168,811.772 1686.459,282.272C1589.042,207.605 1227.751,268.73 1227.751,268.73C1227.751,268.73 1154.959,280.563 1054.918,411.938C953.008,535.182 760.027,401.873 550.835,573.313L550.918,573.313L550.917,573.314Z" style="fill:rgb(44,159,136);fill-rule:nonzero;"/>
                    <path d="M85.042,4609.708C169.125,4542.5 248,4418.083 248.292,4286.458C248.667,4100.958 92.625,4074.75 72.75,3880.708C52.167,3679.625 210.917,3621.708 195.958,3399.291C185.125,3238.374 88.375,3065.874 -10.375,3058.874C-126.333,3050.624 -169.375,3275.916 -281.417,3268.624C-389.25,3261.624 -498.209,3043.082 -500.084,2838.791C-501.792,2650.374 -411.126,2617.041 -333.792,2319.541C-281.792,2119.624 -231.75,1927.124 -321.459,1779.666C-410.251,1633.791 -586.959,1613.041 -617.626,1604.916C-630.209,1601.583 -823.168,1604.916 -823.168,1604.916C-823.168,1604.916 -1398.835,4282.666 -823.876,4857.749C-754.418,4927.249 -596.043,4936.457 -507.418,4909.041C-460.418,4894.499 -398.418,4859.208 -318.376,4747.208C-234.376,4629.708 -79.543,4741.208 85.082,4609.666L85.04,4609.708L85.042,4609.708Z" style="fill:rgb(134,221,204);fill-rule:nonzero;"/>
                    <path d="M656.445,618.721C566.278,688.513 469.793,800.189 469.501,936.939C469.084,1129.606 636.418,1156.856 657.709,1358.439C679.792,1567.356 509.542,1627.481 525.626,1858.522C537.251,2025.647 640.224,2142.112 746.876,2212.147C918.3,2344.06 921.881,2021.452 1037.459,1994.272C1153.084,2001.564 1269.917,2228.564 1271.917,2440.772C1273.75,2636.48 1176.542,2671.147 1093.584,2980.147C1037.834,3187.855 984.167,3387.814 1080.376,3540.939C1175.543,3692.481 1365.043,3714.022 1397.918,3722.481C1411.418,3725.939 1618.293,3722.481 1618.293,3722.481C1618.293,3722.481 2235.543,940.856 1619.043,343.439C1544.543,271.272 1374.751,261.689 1279.751,290.147C1229.334,305.23 1162.876,341.897 1077.043,458.23C1006.141,575.169 917.487,556.352 816.135,571.191C779.206,576.598 739.382,586.442 694.304,598.271L675.349,606.06L656.445,618.721Z" style="fill-opacity:0.07;fill-rule:nonzero;"/>
                    <path d="M728.542,649.73C644.459,716.938 565.584,841.355 565.292,972.98C564.917,1158.48 720.959,1184.688 740.834,1378.73C761.417,1579.813 550.292,1657.397 565.292,1879.813C576.125,2040.73 647.583,2121.895 746.433,2181.245C751.224,2184.121 759.766,2187.862 768.007,2190.63C773.712,2192.547 792.23,2194.792 792.23,2194.792C792.23,2194.792 817.151,2198.512 818.028,2198.755C881.497,2216.386 966.248,1990.061 1054.5,1980.438C1162.333,1987.438 1311.875,2216.313 1313.708,2420.605C1315.416,2609.022 1224.75,2642.355 1147.416,2939.855C1095.416,3139.772 1045.374,3332.272 1135.083,3479.73C1223.875,3625.605 1352.083,3683.272 1430.333,3690.313C1505.916,3697.105 1636.791,3654.48 1636.791,3654.48C1636.791,3654.48 2212.458,976.73 1637.499,401.647C1568.041,332.147 1244.499,401.647 1244.499,401.647C1240.999,401.647 1212.082,400.189 1132.041,512.189C1047.251,631.276 889.356,525.928 728.583,649.731L728.541,649.731L728.542,649.73Z" style="fill:rgb(134,221,204);fill-rule:nonzero;"/>
                </g>
            </g>
        </g>
    </g>
</svg>
