<?xml version="1.0" encoding="UTF-8"?>
<svg id="Livello_1" data-name="Livello 1" xmlns="http://www.w3.org/2000/svg" viewBox="0 0 593.94 1261.44">
  <defs>
    <style>
      .cls-1 {
        opacity: .07;
      }

      .cls-2 {
        fill: #2c9f88;
      }

      .cls-3 {
        fill: #86ddcc;
      }

      .cls-4 {
        fill: #007f7f;
      }
    </style>
  </defs>
  <polygon class="cls-4" points="593.94 .49 0 0 0 1261.44 593.94 1261.44 593.94 .49"/>
  <path class="cls-2" d="M258.58,1128.01c25.21-18.92,48.86-53.95,48.95-91.02.11-52.23-46.68-59.61-52.64-114.26-6.18-56.63,41.43-72.93,36.94-135.56-3.25-45.31-32.26-93.88-61.87-95.86-34.77-2.32-47.68,61.12-81.27,59.07-32.34-1.98-33.82-30.35-34.38-87.88-.51-53.05,21.53-32.52,44.73-116.29,15.59-56.3-7.09-106.42-33.99-147.94-26.62-41.08-74.89-42.99-84.09-45.28-3.77-.94-101.98,10.73-101.98,10.73,0,0-104.74,690.66,47.05,834.14,21.41,20.24,51.84,16.95,80.78,11.46,35.33-6.71,46.78-11.05,70.78-42.58,25.18-33.09,71.62-1.69,120.98-38.73Z"/>
  <path class="cls-1" d="M226.24,1110.09c21.64-16.75,41.93-47.77,42-80.59.1-46.24-40.06-52.78-45.17-101.16-5.3-50.14,35.56-64.57,31.7-120.02-2.79-40.11-27.68-83.12-53.1-84.87-29.84-2.06-40.92,54.11-69.74,52.29-27.75-1.75-55.79-56.23-56.27-107.16-.44-46.97,22.89-55.29,42.8-129.45,13.38-49.85,26.26-97.84,3.17-134.59-22.84-36.37-68.32-41.54-76.21-43.57-3.24-.83-52.89,0-52.89,0,0,0-148.14,667.59-.18,810.97,17.88,17.32,58.63,19.62,81.43,12.79,12.1-3.62,28.05-12.42,48.65-40.34,21.61-29.29,61.46-1.5,103.82-34.29Z"/>
  <path class="cls-2" d="M340.97,89.65c-25.21,18.92-48.86,53.95-48.95,91.02-.11,52.23,46.68,59.61,52.64,114.26,6.18,56.63-41.43,72.93-36.94,135.56,3.25,45.31,32.26,93.88,61.87,95.86,34.77,2.32,47.68-61.12,81.27-59.07,32.34,1.98,33.82,30.35,34.38,87.88.51,53.05-21.53,32.52-44.73,116.29-15.59,56.3,10.93,104.17,33.99,147.94,21.83,41.42,50.94,51.18,85.12,49.43,46.37-2.38,72.69-17.57,91.24-35.26,151.19-144.1,128.41-686.68-37.36-813.76-23.38-17.92-110.09-3.25-110.09-3.25,0,0-17.47,2.84-41.48,34.37-25.18,33.09-71.62,1.69-120.98,38.73Z"/>
  <path class="cls-3" d="M218.41,1106.33c20.18-16.13,39.11-45.99,39.18-77.58.09-44.52-37.36-50.81-42.13-97.38-4.94-48.26,33.16-62.16,29.57-115.54-2.6-38.62-25.82-80.02-49.52-81.7-27.83-1.98-38.16,52.09-65.05,50.34-25.88-1.68-52.03-54.13-52.48-103.16-.41-45.22,21.35-53.22,39.91-124.62,12.48-47.98,24.49-94.18,2.96-129.57-21.31-35.01-63.72-39.99-71.08-41.94-3.02-.8-49.33,0-49.33,0,0,0-138.16,642.66-.17,780.68,16.67,16.68,54.68,18.89,75.95,12.31,11.28-3.49,26.16-11.96,45.37-38.84,20.16-28.2,57.32-1.44,96.83-33.01Z"/>
  <path class="cls-1" d="M363.43,96.33c-21.64,16.75-41.93,47.77-42,80.59-.1,46.24,40.06,52.78,45.17,101.16,5.3,50.14-35.56,64.57-31.7,120.02,2.79,40.11,27.68,83.12,53.1,84.87,29.84,2.06,40.92-54.11,69.74-52.29,27.75,1.75,55.79,56.23,56.27,107.16.44,46.97-22.89,55.29-42.8,129.45-13.38,49.85-26.26,97.84-3.17,134.59,22.84,36.37,68.32,41.54,76.21,43.57,3.24.83,52.89,0,52.89,0,0,0,148.14-667.59.18-810.97-17.88-17.32-58.63-19.62-81.43-12.79-12.1,3.62-28.05,12.42-48.65,40.34-21.61,29.29-61.46,1.5-103.82,34.29Z"/>
  <path class="cls-3" d="M383.6,107.99c-20.18,16.13-39.11,45.99-39.18,77.58-.09,44.52,37.36,50.81,42.13,97.38,4.94,48.26-45.73,66.88-42.13,120.26,2.6,38.62,20.57,74.8,44.28,76.48,27.83,1.98,46.25-54.08,73.13-52.33,25.88,1.68,61.77,56.61,62.21,105.64.41,45.22-21.35,53.22-39.91,124.62-12.48,47.98-24.49,94.18-2.96,129.57,21.31,35.01,52.08,48.85,70.86,50.54,18.14,1.63,49.55-8.6,49.55-8.6,0,0,138.16-642.66.17-780.68-16.67-16.68-94.32,0-94.32,0-.84,0-7.78-.35-26.99,26.53-20.16,28.2-57.32,1.44-96.83,33.01Z"/>
</svg>